<?xml version="1.0" encoding="UTF-8"?>
<svg width="17px" height="16px" viewBox="0 0 17 16" version="1.1" xmlns="http://www.w3.org/2000/svg" xmlns:xlink="http://www.w3.org/1999/xlink">
    <!-- Generator: Sketch 42 (36781) - http://www.bohemiancoding.com/sketch -->
    <title>like-icon</title>
    <desc>Created with Sketch.</desc>
    <defs></defs>
    <g id="Page-1" stroke="none" stroke-width="1" fill="none" fill-rule="evenodd">
        <g id="Artboard" transform="translate(-273.000000, -104.000000)" stroke="#43484D">
            <g id="like-icon" transform="translate(274.000000, 105.000000)">
                <path d="M0,5.72449155 C0,5.49346948 0.224734848,5.15024719 0.446309363,5.15024719 L4.28155001,5.15024719 C4.50452911,5.15024719 4.56492661,5.49530883 4.56492661,5.72449155 L4.56492661,13.5608486 C4.56492661,13.7918706 4.50347567,13.9791162 4.28155001,13.9791162 L0.446309363,13.9791162 C0.223330255,13.9791162 0,13.7900313 0,13.5608486 L0,5.72449155 L0,5.72449155 Z" id="Stroke-70"></path>
                <path d="M10.1832978,4.41443453 L14.5277033,4.41443453 C15.0421355,4.41443453 15.4958189,5.7954168 15.3932837,6.30123742 C15.3932837,6.30123742 14.1505702,11.564347 13.8485827,12.382121 C13.5462441,13.199895 12.5345862,13.2433036 12.3175766,13.2433036 L11.5878906,13.2433036" id="Stroke-72" stroke-linecap="round" stroke-linejoin="bevel"></path>
                <path d="M4.92639856,6.29800017 L5.72210038,5.96728545 L7.41814619,2.81611494 C7.41814619,2.81611494 7.35107689,1.14598722 7.51997917,0.64347742 C7.6892326,0.141335493 9.24411683,-0.7742918 10.1595602,1.27805238 C11.0746524,3.33002869 10.1595602,4.47704593 10.1595602,4.47704593" id="Stroke-74" stroke-linecap="round"></path>
                <path d="M7.67694242,13.3822479 C6.87772911,13.0761804 4.82070295,12.2642924 4.82070295,12.2642924" id="Stroke-76" stroke-linecap="round" stroke-linejoin="bevel"></path>
                <path d="M7.72526041,13 L12.290187,13" id="Stroke-78" stroke-linecap="round"></path>
            </g>
        </g>
    </g>
</svg>